<svg xmlns="http://www.w3.org/2000/svg" viewBox="0 0 48 48"><title>ebook-bookmark-glyph</title><g id="ebook-bookmark"><path id="favorite-ebook" d="M40.23,14.62v30.3A1.08,1.08,0,0,1,39.15,46H12.8c-3.27,0-5-3.07-5-6V7.59A5.92,5.92,0,0,1,13.71,2H38.43a1.08,1.08,0,1,1,0,2.16H13.71A3.71,3.71,0,0,0,9.93,7.59v1.8c0,2,2,4.15,3.77,4.15h1.62V27.88l4.49-4.5a1.25,1.25,0,0,1,1.76,0l4.5,4.5V13.54H39.15A1.08,1.08,0,0,1,40.23,14.62ZM12.46,7.77a1.08,1.08,0,1,0,0,2.16H35.54a1.08,1.08,0,0,0,0-2.16Z" fill="#231f20"/></g></svg>